<svg width="32" height="32" viewBox="0 0 88 88" xmlns="http://www.w3.org/2000/svg">
  <rect width="88" height="88" rx="16" fill="#111210"/>
  <path d="M 6,38 Q 14,20 28,18 Q 40,16 48,24 Q 54,30 62,30 L 82,30 Q 86,30 87,36 L 88,42 L 4,42 L 4,38 Z" fill="#F9F8F5"/>
  <line x1="4" y1="42" x2="4" y2="50" stroke="#F9F8F5" stroke-width="3.5" stroke-linecap="round"/>
  <line x1="88" y1="42" x2="88" y2="50" stroke="#F9F8F5" stroke-width="3.5" stroke-linecap="round"/>
  <circle cx="18" cy="52" r="8" fill="none" stroke="#F9F8F5" stroke-width="3"/>
  <circle cx="18" cy="52" r="3" fill="#F9F8F5"/>
  <circle cx="74" cy="52" r="8" fill="none" stroke="#F9F8F5" stroke-width="3"/>
  <circle cx="74" cy="52" r="3" fill="#F9F8F5"/>
  <line x1="4" y1="52" x2="10" y2="52" stroke="#F9F8F5" stroke-width="3.5" stroke-linecap="round"/>
  <line x1="26" y1="52" x2="66" y2="52" stroke="#F9F8F5" stroke-width="3.5" stroke-linecap="round"/>
  <line x1="82" y1="52" x2="88" y2="52" stroke="#F9F8F5" stroke-width="3.5" stroke-linecap="round"/>
  <circle cx="30" cy="15" r="4" fill="#1A56DB"/>
</svg>